# xmcd
#
# Track frame offsets: 
#        150
#        13801
#        33700
#        54793
#        71885
#        89627
#        111688
#        134139
#        147345
#        161778
#        179773
#
# Disc length: 2714 seconds
#
# Revision: 0
# Processed by: cddbd v1.5.2PL0 Copyright (c) Steve Scherf et al.
# Submitted via: ExactAudioCopy v0.99pb4
#
DISCID=b50a980b
DTITLE=Robert Bonfligio - Bonfligio plays Love Songs of Sam Hui
DYEAR=2005
DGENRE=Pop
TTITLE0=浪子心聲
TTITLE1=天才白痴夢
TTITLE2=春夢
TTITLE3=紙船
TTITLE4=天才白痴往日情
TTITLE5=印象
TTITLE6=夜半輕私語
TTITLE7=雙星情歌
TTITLE8=塔凌雲
TTITLE9=梨渦淺笑
TTITLE10=我像一片雲
EXTD=
EXTT0=
EXTT1=
EXTT2=
EXTT3=
EXTT4=
EXTT5=
EXTT6=
EXTT7=
EXTT8=
EXTT9=
EXTT10=
PLAYORDER=
